<svg xmlns="http://www.w3.org/2000/svg" viewBox="0 0 356.99 56.79"><defs><style>.cls-1{fill:#f6f1ed;}</style></defs><g id="Layer_2" data-name="Layer 2"><g id="Layer_1-2" data-name="Layer 1"><polygon class="cls-1" points="59.14 56.79 0 56.79 0 50.28 52.63 50.28 52.63 21.71 41.6 21.71 41.6 41.26 17.35 41.26 17.35 0 76.61 0 76.61 56.79 70.1 56.79 70.1 6.51 23.86 6.51 23.86 34.74 35.09 34.74 35.09 15.19 59.14 15.19 59.14 56.79"/><polygon class="cls-1" points="129.19 56.79 70.06 56.79 70.06 50.28 122.68 50.28 122.68 21.71 111.65 21.71 111.65 41.26 87.4 41.26 87.4 0 146.66 0 146.66 56.79 140.15 56.79 140.15 6.51 93.91 6.51 93.91 34.74 105.14 34.74 105.14 15.19 129.19 15.19 129.19 56.79"/><polygon class="cls-1" points="199.33 56.79 140.19 56.79 140.19 50.28 192.81 50.28 192.81 21.71 181.79 21.71 181.79 41.26 157.53 41.26 157.53 0 216.81 0 216.81 56.79 210.29 56.79 210.29 6.51 164.05 6.51 164.05 34.74 175.28 34.74 175.28 15.19 199.33 15.19 199.33 56.79"/><polygon class="cls-1" points="269.38 56.79 210.25 56.79 210.25 50.28 262.87 50.28 262.87 21.71 251.84 21.71 251.84 41.26 227.59 41.26 227.59 0 286.86 0 286.86 56.79 280.34 56.79 280.34 6.51 234.1 6.51 234.1 34.74 245.33 34.74 245.33 15.19 269.38 15.19 269.38 56.79"/><polygon class="cls-1" points="339.52 56.79 280.38 56.79 280.38 50.28 333.01 50.28 333.01 21.71 321.99 21.71 321.99 41.26 297.72 41.26 297.72 0 356.99 0 356.99 56.79 350.48 56.79 350.48 6.51 304.24 6.51 304.24 34.74 315.47 34.74 315.47 15.19 339.52 15.19 339.52 56.79"/></g></g></svg>