<?xml version="1.0" encoding="utf-8"?>
<!-- Generator: Adobe Illustrator 26.0.3, SVG Export Plug-In . SVG Version: 6.00 Build 0)  -->
<svg version="1.1" id="Layer_1" xmlns="http://www.w3.org/2000/svg" xmlns:xlink="http://www.w3.org/1999/xlink" x="0px" y="0px"
	 viewBox="0 0 372.4 133.7" style="enable-background:new 0 0 372.4 133.7;" xml:space="preserve">
<style type="text/css">
	.st0{fill:#FFFFFF;}
	.st1{fill:#231F20;}
</style>
<path class="st0" d="M14.5,0H238v133.7H14.5c-8,0-14.5-6.5-14.5-14.5V14.5C0,6.5,6.5,0,14.5,0C14.5,0,14.5,0,14.5,0z"/>
<path class="st0" d="M357.9,133.7H247.6V0h110.3c8,0,14.5,6.5,14.5,14.5c0,0,0,0,0,0v104.7C372.4,127.2,365.9,133.7,357.9,133.7
	L357.9,133.7z"/>
<g>
	<g>
		<path class="st1" d="M305.3,17.2v49.3h-11.2V33.3l-4.5,33.3h-7.9L277,34v32.5h-11.2V17.2h16.6c0.5,3,1,6.5,1.5,10.5l1.8,12.5l3-23
			L305.3,17.2z"/>
		<path class="st1" d="M313.6,17.2H335v9.9h-8.6v9.3h8v9.4h-8v10.8h9.4v9.9h-22.3V17.2z"/>
		<path class="st1" d="M355.5,17.2v49.3h-12.8V17.2H355.5z"/>
	</g>
	<g>
		<path class="st1" d="M278.6,70.9v39.4h7.8v9.9h-20.6V70.9H278.6z"/>
		<path class="st1" d="M304.2,70.9v49.3h-12.8V70.9H304.2z"/>
	</g>
</g>
<g>
	<path class="st1" d="M45.2,70.4c2.5-0.5,4.4-0.9,5.6-1.2c4.8-1.4,7.5-2.1,7.9-2.2c3.8-0.4,6-1.1,6.6-1.9c0.4-0.7,0.6-1.4,0.6-2.2
		c0-0.5,0-1.3-0.1-2.4c0-0.5,0-0.8,0-1.1c0-1.3,0.1-2.8,0.3-4.5c-4.8,1.3-9.5,2.8-14.1,4.6c-0.7,0.2-1.3,0.5-1.8,1l-1.9,2.1h-0.1
		l-0.1,0.1c-0.2-0.2-0.5-0.5-0.7-0.7c-0.6-1.5-0.9-3.2-1-4.8c0-1.1,1-1.9,2.9-2.6l-0.3,2.2l11.1-3.6l3.5-0.8l2.3-0.5
		c0.2-0.5,0.3-1.1,0.2-1.7c0.1-1.5,0.2-2.3,0.3-2.6c0.4-2.4,0.6-3.9,0.6-4.3c0.1-0.7-0.4-1.4-1.1-1.5c-0.1,0-0.2,0-0.3,0
		c-1,0-4.9,1.5-11.8,4.4c-2.5,1.1-4.1,1.8-5,2.1c-0.7,0.2-1.4,0.6-2,1.1c-0.1,0.1-0.2,0.2-0.2,0.2l-0.4-0.3C46.1,49,46,48.8,46,48.5
		l0.2-1.2l0.8-4.4h2.5l20.5-4c3.3-0.7,6.6-1,10-1c1.5,0,3.1,0.2,4.6,0.4c1.9,0.3,3.8,0.6,5.7,0.7c0.4,0,0.8,0,1.2-0.1
		c0.8-0.2,1.6-0.4,2.4-0.5c1.3,0.2,2.4,0.8,3.3,1.8c0.9,0.8,1.4,1.5,1.3,2c0,0.4-0.1,0.7-0.3,1l-0.3,0.7C92.3,42,86.7,41,81,40.9
		c-4,0-7.9,0.2-11.8,0.8c1.2,0.9,2.2,2,2.9,3.4c0.1,0.2,0.3,2.1,0.7,5.6l4.1-0.1l10.4,0.8l3.2-1c0.5,0,2,0.9,4.6,2.5
		c1,0.6,1.5,1.2,1.5,1.8c-0.1,0.6-0.3,1.2-0.8,1.7c-0.4,0.5-0.9,0.8-1.5,0.9c-0.8,0-2.8-0.7-6-2c-2-0.7-4-1-6.1-0.9
		c-1.6,0-3.1-0.1-4.7-0.3c-1-0.2-2-0.3-3.1-0.3c-0.3,0-0.6,0.1-0.9,0.3c-0.4,0.2-0.5,0.4-0.5,0.5l0.2,8.4c-0.1,0.6-0.3,1.2-0.5,1.8
		c4.8-0.5,8.2-0.7,10.3-0.7h0.8l6.8,0.4c1.4-0.1,2.8-0.4,4.2-0.9c0.1,0,0.1,0,0.2,0c1.2,0,3,1.9,5.4,5.6c-0.8-0.1-1.6,0-2.3,0.4
		c-0.1,0.1-0.1,0.1-0.2,0.1c-0.1,0-0.2-0.1-0.2-0.1c-0.1-0.1-4.4-0.7-13.1-1.9c-13-1.8-0.5,0.1-1.3,0.2c-1.9,0.4-3.9,0.6-5.9,0.6
		c-0.7,0-1.4-0.1-2.1-0.2C74.5,68.1,74,68,73.7,68c-0.5,0-1,0.1-1.4,0.4c-0.3,0.6-0.6,1.3-0.8,2l-0.9-0.1c-0.3,0-0.5,0.5-0.7,1.4
		l-0.1,0.4l0.1,0.4c0,0.1,0,0.7,0.1,1.8l-0.2,1.8c0,1.3,0.5,2,1.6,2c2-0.1,3.9-0.4,5.8-1c1.5-0.4,3-0.6,4.6-0.6c0.9,0,2.5,0.1,5,0.4
		c1.2,0.1,5.4,0.3,12.7,0.5c2,0,4.1,0.3,6,0.8c1.2,0.5,2.4,0.9,3.6,1.2c1.5-0.2,2.9-0.6,4.2-1.3c0.2-0.1,0.5-0.1,0.7-0.1
		c0.7,0,1.5,0.7,2.5,2.2c0.9,1.2,1.4,2.6,1.4,4c0,0.8-0.7,1.2-2,1.5c-2.4-0.4-9.2-1.6-20.5-3.7c-2.5-0.4-5-0.6-7.5-0.6
		c-1.9,0-7.1,0.2-15.4,0.7l-3.2,0.2c0,0-0.2,0.3-0.7,0.8c-1.1,1.2-1.9,3.8-2.3,7.9c-0.2,1.9-1.7,4.7-4.7,8.4
		c-1.9,2.2-4.1,4.1-6.5,5.7c-0.3,0.2-1.9,1.2-4.7,3.1c-6,2.1-9.7,3.1-11,3.1c-0.7,0-1.4-0.4-1.7-1c-0.3-0.7-0.4-1.4-0.5-2.1
		c-0.2-0.7-0.4-1.4-0.7-2.1c-0.4-1.1-0.7-2.2-1-3.4c1.3,0.6,2.7,1.1,4.1,1.2c1.8,0,4.2-0.7,7.2-2.3c3-1.5,5.8-3.4,8.3-5.6
		c3.3-2.9,6.3-7.4,9.1-13.6c-8.3,0.4-16.5,2-24.4,4.8c-4.3,1.5-8.5,3.3-12.4,5.5c-0.1,0.1-0.3,0.1-0.5,0.2c-0.3-0.1-0.5-0.2-0.8-0.3
		c-0.7-0.8-1.3-1.6-1.8-2.5c-0.8-0.9-1.5-1.8-2.2-2.8c0-0.5,0.3-1,0.7-1.2c0.6-0.2,1.1-0.4,1.7-0.5c1.7-0.5,2.6-0.7,2.8-0.7
		s0.3,0,0.3,0.1l-0.1,2.5c12.6-4.3,19.9-6.6,21.8-7.1c1.3-0.2,5.8-0.8,13.6-1.8c1.9,0,2.8-0.2,2.8-0.4c1.3-4.5,2-6.9,2-7.1
		c0-0.6-0.3-1.1-0.8-1.4c-0.4-0.4-0.9-0.7-1.4-0.7c-0.3,0-0.6,0.1-0.9,0.2l-20.4,6.1L43,75.8c-0.3,0-0.8-0.8-1.5-2.3
		c-0.5-0.9-0.8-1.8-1-2.8c0-0.5,0.2-1,0.7-1.3c1-0.7,2.2-1.1,3.4-1.1C45.8,68.3,46.1,69,45.2,70.4z M56.5,38.6
		c-0.8-1.2-1.4-2.5-1.8-3.9c-0.3-1.3-0.5-2.6-0.6-4l3.1-3.4l2.6-3.3l2.1,4.4l10.1-4.2l-1.6,1.3c-0.1,1-0.3,2-0.7,3
		c-0.2,0.4-3.8,2.8-10.6,7.4c-0.7,0.5-1.3,1.1-1.9,1.7C57.2,37.9,56.9,38.2,56.5,38.6z M66.9,38.6c4.4-3.3,7.8-5.8,10.1-7.4
		c3.5-2.4,6.8-5,9.7-8c0.5-0.5,1.2-2.1,2-4.8l2.9,0.8c0.8,0.3,1.5,0.9,1.8,1.8c0.3,0.5,0.5,1.1,0.5,1.7c0,0.8-0.6,2-1.8,3.6
		c-1.7,2.1-3.8,3.7-6.2,4.8c-0.7,0.4-1.4,0.7-2.2,1.1c-1.3,0.6-3.2,1.5-5.7,2.7l-0.8-0.6c-0.7,0.8-1.7,1.4-2.8,1.5
		C71.8,36.1,69.2,37.1,66.9,38.6L66.9,38.6z M74.2,87.6c6.7,2.4,11.7,5,15.1,7.8c5.4,4.4,9,8.1,10.9,11.1c0.4,0.5,0.7,1.1,0.8,1.7
		c0,0.1-0.1,0.3-0.1,0.4c-0.4,1.4-0.7,2.4-0.8,2.8c-0.4,1.7-1,2.6-1.7,2.6c-1,0-2.4-1.4-4.3-4.3c-2-2.8-4.3-5.3-6.8-7.7
		C84.6,99.5,80.3,94.7,74.2,87.6z"/>
	<path class="st1" d="M135.2,39.9l-1.4,1.5l2.1-0.5l-0.6,2.3l27.6-6.4c7-1.7,19.3-2.4,36.9-2.4h1.2c1,0,4.9,0.6,11.5,1.9l3.3-0.2
		c1.6,0.3,3.1,1.1,4.2,2.4c0.7,0.8,1.1,1.3,1.1,1.6c0,0.6-0.4,1.1-0.9,1.5c-1.1,0.3-2.3,0.5-3.4,0.5l-1.6,0.2l-11.7-3.1l-26.8-0.8
		c-3.8-0.1-11.3,1-22.4,3.3c-4.2,0.9-8.3,2.1-12.3,3.7c-2.4,1-4.1,1.6-5.1,2c-1.6,0.5-3.1,1.3-4.5,2.3c-0.6,0.7-1.4,1.1-2.3,1.3
		c-0.6,0-1.2-0.3-1.5-0.9c-0.8-1.1-1.2-2.4-1.4-3.8C127.4,45.1,130,42.9,135.2,39.9z M134.1,90.6c0.9-0.5,1.3-1.1,1.3-1.7
		c0-0.7-0.1-1.5-0.4-2.2c0.7,1.3,1.4,2,1.9,2c0.9,0,2.1-1.9,3.7-5.6c1.6-3,2.9-6.2,4-9.4c0.6-2.8,0.8-5.6,0.8-8.4c0-0.9,0-2.2,0-4
		c0.8,0.2,1.5,0.6,2,1.2c0.7,1.8,1.3,3.7,1.8,5.6c4,0.5,6.2,0.8,6.5,0.9c1.1,0.4,2,1.2,2.6,2.2c0.5,0.8,0.8,1.7,0.8,2.6
		c0,0.6-0.3,1.2-0.8,1.5c-0.5,0.4-1.1,0.7-1.8,0.6c-2,0-4.5-2.2-7.4-6.4c0.3,3,0.4,6,0.4,9.1c-0.1,6.2-2.6,12.1-6.9,16.6
		c-1.9,2-3.5,3-4.9,3c-1.1,0-2.1-0.6-2.8-1.4c-0.8-1-1.2-2.3-1.1-3.5L134.1,90.6z M153.5,95.4c0.4,0.4,0.9,0.6,1.4,0.8
		c0.2,0,0.4-0.1,0.6-0.2l4.2-0.8c0.7-1,1-2.2,1-3.4c0-0.3,0-0.6,0-1.2c0-1.1,0-1.9,0-2.3c0.1-3.3,0.7-9.4,1.8-18.2l1.8-14.6
		c0.2-1.9,0.4-3.4,0.4-4.7c0-1-0.3-1.5-1-1.5c-1.5,0.1-3,0.6-4.3,1.4c-0.7,0.3-2.2,2-4.7,5c-0.1,0.2-0.4,0.2-0.6,0.2
		c-0.7,0-1.4-0.4-1.8-0.9c-0.3-0.3-0.5-0.8-0.5-1.2c0-1.3,1-2.7,2.9-4.2c2.6-2,5.9-3,9.2-2.8c4.3,0.1,6.3,1.8,6.2,5.2L169,74.3
		l-0.1,24.2l0.1,2.4c0.1,1.4-0.4,2.9-1.4,3.9c-0.5,0.4-1,0.8-1.6,1l-3.4,1.4c-0.5-0.1-0.9-0.3-1.1-0.7
		C160.8,105.7,158.1,102.1,153.5,95.4z M179.8,55.7c1,0.6,1.8,1.5,2.2,2.7c0.7,2.8,1.1,5.7,1.3,8.5l3.8,0.4c0.8,0.1,1.4,0.5,1.9,1.1
		c2.3,2.5,3.5,5,3.4,7.5c0,1.6-0.8,2.3-2.2,2.3c-2.5,0-4.7-2.9-6.6-8.6c-0.1,5.9-0.5,10.2-1.2,12.9c-1.2,4.7-2.9,7.9-5,9.5
		c-0.6,0.5-1.3,0.8-2.1,0.8c-0.7,0-1.3-0.4-1.7-0.9c-0.6-0.7-0.9-1.6-0.8-2.5c0-0.6,1.3-3.6,4-9.2c0.9-2.1,1.5-4.2,2-6.4
		c0.8-3.4,1.3-6.9,1.4-10.4C180.3,61.7,180.1,59.2,179.8,55.7z M184.7,99.4c1.4,0.1,2.5,0.1,3.4,0.1c2.9,0.1,5-0.3,6.3-1
		c0.9-0.6,1.5-1.6,1.3-2.7c0-0.4,0-1.2-0.1-2.2c-0.1-1.9-0.1-5.4,0-10.5l0.8-31.6v-2.1c0-0.2-0.1-0.4-0.2-0.5
		c-0.8-1-2.2-1.5-4.3-1.5c-1.5-0.1-3,0.5-4,1.7c-1.5,1.9-2.4,2.9-2.5,3c-0.4,0.2-0.9,0.4-1.4,0.3c-0.8,0-1.5-0.4-2-0.9
		c-0.4-0.4-0.6-1-0.6-1.6c0-0.8,0.6-1.6,1.8-2.4c2.4-1.6,5.3-2.5,8.2-2.4c2.4,0.1,4.6,1,6.4,2.5c1.3,0.9,2.2,2.2,2.6,3.6
		c0,0.1,0,2-0.1,5.6l2.9,43l0.1,1.9l-1.1,3c-0.6,3.3-1.1,5.2-1.5,5.7c-0.3,0.4-0.8,0.7-1.4,0.8c-0.6,0-2.7-1-6.1-3.1
		c-1.4-1.2-2.7-2.6-3.9-4C188.4,103,186.8,101.4,184.7,99.4z"/>
</g>
<path class="st1" d="M334,110.8c-0.1,0-0.2,0-0.3-0.1c-1.5-1.2-2.9-2.5-4.2-4c-1.1-1.3-2.1-2.8-2.9-4.4c-1.8-3.4-1.8-7.6,0-11
	c0.8-1.6,1.7-3.1,2.9-4.4c1.3-1.5,2.7-2.8,4.2-4c0.2-0.1,0.4-0.1,0.6,0c1.5,1.2,2.9,2.5,4.2,4c1.1,1.3,2.1,2.8,2.9,4.4
	c1.8,3.4,1.8,7.6,0,11c-0.8,1.6-1.7,3.1-2.9,4.4c-1.2,1.5-2.6,2.8-4.2,4C334.2,110.8,334.1,110.8,334,110.8z M334,84
	c-1.3,1.1-2.6,2.3-3.7,3.6c-1.1,1.3-2,2.7-2.7,4.2c-1.6,3.1-1.6,6.9,0,10c0.7,1.5,1.7,2.9,2.7,4.2c1.1,1.3,2.3,2.5,3.7,3.6
	c1.3-1.1,2.6-2.3,3.7-3.6c1.1-1.3,2-2.7,2.7-4.2c1.6-3.1,1.6-6.9,0-10c-0.7-1.5-1.7-2.9-2.7-4.2C336.6,86.3,335.3,85.1,334,84z"/>
<path class="st1" d="M325,112.6c-2.4,0.1-4.9-0.5-7-1.7c-1.6-1-3-2.3-4-3.9c-1-1.5-1.7-3.1-2.3-4.7c-0.6-1.8-1.1-3.7-1.3-5.7
	c0-0.2,0.1-0.5,0.3-0.6c2.9-1.2,6.1-1.8,9.2-1.9c2.4-0.1,4.9,0.5,7,1.7c1.6,1,3,2.3,4,3.9c1,1.5,1.7,3.1,2.3,4.7
	c0.6,1.8,1.1,3.7,1.3,5.7c0,0.2-0.1,0.5-0.3,0.6C331.3,111.9,328.2,112.5,325,112.6z M311.4,96.9c0.3,1.7,0.7,3.4,1.2,5
	c0.5,1.6,1.3,3.1,2.2,4.5c1,1.5,2.2,2.7,3.7,3.6c2,1.1,4.2,1.6,6.5,1.6c2.9-0.1,5.7-0.6,8.4-1.6c-0.2-1.7-0.7-3.4-1.2-5
	c-0.5-1.6-1.3-3.1-2.2-4.5c-0.9-1.5-2.2-2.7-3.7-3.6c-2-1.1-4.2-1.6-6.5-1.6C317,95.3,314.1,95.8,311.4,96.9z"/>
<path class="st1" d="M318.4,95.3L318.4,95.3c-0.3,0-0.5-0.3-0.5-0.6c0.2-2.7,0.8-5.3,1.7-7.8c0.1-0.2,0.3-0.4,0.5-0.3
	c1.9,0.2,3.8,0.7,5.7,1.3c1.7,0.6,3.3,1.3,4.7,2.3c1.6,1,3,2.4,4,4c0.1,0.3,0.1,0.6-0.2,0.7c-0.3,0.1-0.6,0.1-0.8-0.2
	c-0.9-1.5-2.2-2.8-3.7-3.7c-1.4-0.9-2.9-1.6-4.5-2.1c-1.6-0.6-3.3-0.9-5-1.2c-0.8,2.3-1.3,4.6-1.5,7C319,95.1,318.7,95.3,318.4,95.3
	C318.4,95.3,318.4,95.3,318.4,95.3L318.4,95.3z"/>
<path class="st1" d="M343,112.6L343,112.6c-3.2-0.1-6.3-0.7-9.2-1.8c-0.2-0.1-0.4-0.3-0.3-0.6c0.2-1.9,0.7-3.8,1.3-5.7
	c0.6-1.7,1.3-3.3,2.3-4.7c1-1.6,2.4-2.9,4-3.9c2.1-1.2,4.6-1.8,7-1.7c3.2,0.1,6.3,0.7,9.3,1.9c0.2,0.1,0.4,0.3,0.3,0.6
	c-0.2,1.9-0.7,3.8-1.3,5.7c-0.6,1.7-1.3,3.3-2.3,4.7c-1,1.6-2.4,2.9-4,3.9C347.9,112.1,345.5,112.7,343,112.6z M334.6,109.9
	c2.7,1,5.6,1.6,8.5,1.6l0,0c2.2,0.1,4.5-0.4,6.5-1.5c1.5-0.9,2.7-2.1,3.7-3.6c0.9-1.4,1.6-2.9,2.2-4.5c0.6-1.6,1-3.3,1.2-5
	c-2.7-1-5.6-1.6-8.4-1.6c-2.3-0.1-4.5,0.5-6.5,1.6c-1.5,0.9-2.7,2.1-3.7,3.6c-0.9,1.4-1.6,2.9-2.2,4.5
	C335.3,106.6,334.9,108.2,334.6,109.9L334.6,109.9z"/>
<path class="st1" d="M349.6,95.3c-0.3,0-0.5-0.2-0.5-0.5c-0.2-2.4-0.7-4.7-1.5-7c-2.6,0.4-5.1,1.1-7.5,2.2c-2.3,1-4.2,2.7-5.5,4.8
	c-0.1,0.3-0.5,0.3-0.7,0.2c0,0,0,0,0,0c-0.3-0.2-0.3-0.5-0.2-0.7c0,0,0,0,0,0c1.4-2.3,3.5-4.1,5.9-5.2c2.6-1.2,5.4-2,8.3-2.4
	c0.2,0,0.5,0.1,0.5,0.3c1,2.5,1.6,5.1,1.8,7.8C350.1,95.1,349.9,95.3,349.6,95.3L349.6,95.3L349.6,95.3z"/>
</svg>
