<svg xmlns="http://www.w3.org/2000/svg" viewBox="0 0 372.42 133.7"><defs><style>.cls-1{fill:#c82128;}.cls-2{fill:#f1d01a;}.cls-3{fill:#231f20;}.cls-4{fill:#fff;}</style></defs><g id="Layer_2" data-name="Layer 2"><g id="Layer_1-2" data-name="Layer 1"><path class="cls-1" d="M14.48,0H238a0,0,0,0,1,0,0V133.7a0,0,0,0,1,0,0H14.48A14.48,14.48,0,0,1,0,119.22V14.48A14.48,14.48,0,0,1,14.48,0Z"/><path class="cls-2" d="M262.13,0H372.42a0,0,0,0,1,0,0V133.7a0,0,0,0,1,0,0H262.13a14.48,14.48,0,0,1-14.48-14.48V14.48A14.48,14.48,0,0,1,262.13,0Z" transform="translate(620.06 133.7) rotate(180)"/><path class="cls-3" d="M305.33,17.24V66.55H294.12V33.26l-4.46,33.29H281.7L277,34V66.55H265.77V17.24h16.59q.74,4.46,1.52,10.49l1.82,12.54,2.95-23Z"/><path class="cls-3" d="M313.28,17.24h21.38v9.87H326.1v9.35h8v9.38h-8V56.68h9.41v9.87H313.28Z"/><path class="cls-3" d="M354.83,17.24V66.55H342V17.24Z"/><path class="cls-3" d="M278.59,70.91v39.44h7.8v9.86H265.77V70.91Z"/><path class="cls-3" d="M303.87,70.91v49.3H291.05V70.91Z"/><path class="cls-4" d="M45.13,70.27c2.53-.47,4.42-.89,5.64-1.24q7.27-2.1,7.89-2.2,5.69-.61,6.6-1.94a4.24,4.24,0,0,0,.65-2.22c0-.52,0-1.31-.07-2.39,0-.48,0-.83,0-1.06q0-1.89.3-4.5A133.17,133.17,0,0,0,52,59.32a5,5,0,0,0-1.8,1l-1.93,2.08h-.05l-.11.11a4.52,4.52,0,0,1-.66-.74,15.33,15.33,0,0,1-1-4.8c0-1.08,1-1.93,2.94-2.56l-.27,2.22L60.23,53l3.47-.83L66,51.6a4.56,4.56,0,0,0,.25-1.66q.21-2.17.27-2.61c.37-2.45.57-3.87.57-4.28a1.28,1.28,0,0,0-1.42-1.47q-1.44,0-11.76,4.41c-2.47,1.08-4.13,1.77-5,2.09a5.42,5.42,0,0,0-2.08,1.19c-.11.11-.19.16-.22.16l-.44-.34a.92.92,0,0,1-.38-.68L46,47.19l.75-4.38h2.45l20.43-4a48,48,0,0,1,10-1,39.24,39.24,0,0,1,4.62.36,45.3,45.3,0,0,0,5.66.65,5.21,5.21,0,0,0,1.17-.14,20.85,20.85,0,0,1,2.4-.46,5.58,5.58,0,0,1,3.31,1.72c.92.8,1.37,1.48,1.36,2a2.59,2.59,0,0,1-.3,1l-.34.66a56,56,0,0,0-16.76-2.85A74.23,74.23,0,0,0,69,41.58,9.51,9.51,0,0,1,72,45c.07.23.31,2.09.74,5.58l4.06-.1,10.45.74,3.19-1.06c.48,0,2,.87,4.57,2.48,1,.61,1.49,1.19,1.48,1.75A2.61,2.61,0,0,1,95.63,56a2.1,2.1,0,0,1-1.52.86q-1.17,0-6-2A16.85,16.85,0,0,0,82,54a30.49,30.49,0,0,1-4.67-.24,24.83,24.83,0,0,0-3-.33,1.81,1.81,0,0,0-.93.31c-.36.22-.53.4-.54.55L73,62.69a7.14,7.14,0,0,1-.53,1.77q7.19-.66,10.25-.6h.83l6.79.34a17.87,17.87,0,0,0,4.19-.93.54.54,0,0,1,.22-.05c1.22,0,3,1.89,5.41,5.6a3.68,3.68,0,0,0-2.34.46.53.53,0,0,1-.23.11.6.6,0,0,1-.22-.11q-.11-.12-13.1-1.84s-.46.06-1.28.2a30.78,30.78,0,0,1-5.86.56,17,17,0,0,1-2.11-.2,13.4,13.4,0,0,0-1.5-.14,2.3,2.3,0,0,0-1.39.37,9.56,9.56,0,0,0-.82,2l-.89-.08q-.39,0-.69,1.44L69.7,72l.1.39c0,.07,0,.69.08,1.84L69.74,76c0,1.34.52,2,1.63,2a24.42,24.42,0,0,0,5.75-1,16.88,16.88,0,0,1,4.58-.65c.85,0,2.5.14,4.94.37q1.83.14,12.68.44a19.29,19.29,0,0,1,6.05.83,29,29,0,0,0,3.6,1.17,13.11,13.11,0,0,0,4.25-1.31,1.83,1.83,0,0,1,.73-.21c.7,0,1.53.73,2.47,2.15a7,7,0,0,1,1.43,4c0,.74-.69,1.25-2,1.52q-3.55-.55-20.47-3.63a47.81,47.81,0,0,0-7.5-.58q-2.89,0-15.43.73L69.25,82s-.19.3-.69.77q-1.69,1.75-2.25,7.92-.21,2.77-4.71,8.43a29.5,29.5,0,0,1-6.49,5.73c-.31.22-1.86,1.25-4.68,3.09q-9,3.18-11,3.15a1.94,1.94,0,0,1-1.71-1,7,7,0,0,1-.52-2.12A16.37,16.37,0,0,0,36.5,106a24.7,24.7,0,0,1-1-3.36,12.48,12.48,0,0,0,4.09,1.24q2.67,0,7.25-2.29a40.36,40.36,0,0,0,8.3-5.62q4.86-4.31,9-13.64a85,85,0,0,0-24.34,4.86,73.25,73.25,0,0,0-12.4,5.57.94.94,0,0,1-.45.16,2.72,2.72,0,0,1-.77-.29,18,18,0,0,1-1.79-2.48,17.93,17.93,0,0,1-2.18-2.82A1.46,1.46,0,0,1,23,86a8.86,8.86,0,0,1,1.73-.53c1.72-.49,2.65-.73,2.8-.73s.33,0,.33.12l-.1,2.5q18.81-6.52,21.77-7.14,1.9-.34,13.56-1.82c1.85,0,2.8-.19,2.84-.45,1.34-4.5,2-6.87,2-7.09a1.87,1.87,0,0,0-.76-1.4,2.13,2.13,0,0,0-1.43-.7,3.74,3.74,0,0,0-1,.21L44.44,75.16l-1.52.53c-.25,0-.76-.78-1.51-2.31a8.47,8.47,0,0,1-1-2.75,1.5,1.5,0,0,1,.69-1.32,5.76,5.76,0,0,1,3.36-1.11C45.74,68.22,46,68.91,45.13,70.27Zm11.24-31.8a11.41,11.41,0,0,1-1.77-3.93,17.21,17.21,0,0,1-.6-4l3.12-3.4,2.56-3.24,2.1,4.38,10.14-4.22-1.64,1.31a13.62,13.62,0,0,1-.66,3q-.34.55-10.53,7.44a22.15,22.15,0,0,0-1.87,1.75C57,37.76,56.75,38.07,56.37,38.47Zm10.35,0q6.65-5,10.09-7.39A67.77,67.77,0,0,0,86.52,23c.49-.47,1.16-2.07,2-4.8l2.88.82a3,3,0,0,1,1.8,1.76,4.25,4.25,0,0,1,.53,1.73c0,.78-.63,2-1.84,3.59A16.71,16.71,0,0,1,85.71,31L83.52,32c-1.27.57-3.16,1.47-5.66,2.68l-.77-.62a4,4,0,0,1-2.75,1.45A17.42,17.42,0,0,0,66.72,38.48Zm7.44,48.93q10,3.57,15.11,7.72,8.07,6.54,10.94,11.1A4.5,4.5,0,0,1,101,108a1.49,1.49,0,0,1-.12.38c-.44,1.44-.71,2.39-.83,2.83-.44,1.73-1,2.6-1.66,2.58-1,0-2.4-1.43-4.32-4.24a49.44,49.44,0,0,0-6.82-7.63Q83.26,98,74.16,87.41Z"/><path class="cls-4" d="M134.93,39.61l-1.42,1.53,2.13-.52L135,43l27.54-6.48Q173,34,199.47,34l1.17,0q1.55,0,11.54,1.87l3.28-.22A7.41,7.41,0,0,1,219.71,38c.73.75,1.09,1.3,1.08,1.63a2,2,0,0,1-.86,1.49,12,12,0,0,1-3.4.5l-1.62.19-11.69-3-26.75-.74q-5.73-.16-22.43,3.39a70.67,70.67,0,0,0-12.25,3.74q-3.64,1.44-5,2a15.57,15.57,0,0,0-4.5,2.32,4.46,4.46,0,0,1-2.3,1.35,1.73,1.73,0,0,1-1.49-.86,7.79,7.79,0,0,1-1.38-3.75Q127.13,44,134.93,39.61Zm-1,50.67c.86-.5,1.3-1.07,1.31-1.7a7.43,7.43,0,0,0-.35-2.17c.72,1.34,1.35,2,1.91,2q1.4,0,3.66-5.61a61.92,61.92,0,0,0,4-9.45,43.22,43.22,0,0,0,.82-8.44c0-.89,0-2.22,0-4a3.83,3.83,0,0,1,2,1.21,53,53,0,0,1,1.85,5.59c4,.48,6.2.78,6.5.9a4.86,4.86,0,0,1,2.57,2.21,4.67,4.67,0,0,1,.85,2.57A2.06,2.06,0,0,1,158.3,75a2.65,2.65,0,0,1-1.79.64q-3-.06-7.4-6.42a89.63,89.63,0,0,1,.4,9.08,24.49,24.49,0,0,1-6.8,16.57c-1.85,2-3.49,3.06-4.9,3A3.64,3.64,0,0,1,135,96.42a5.45,5.45,0,0,1-1.16-3.58ZM153.33,95a3.34,3.34,0,0,0,1.38.75,1.36,1.36,0,0,0,.56-.22l4.25-.81a6.24,6.24,0,0,0,.95-3.44c0-.26,0-.65,0-1.17,0-1.11,0-1.89,0-2.34q.08-5,1.7-18.16L163.88,55c.21-1.85.33-3.4.35-4.66,0-1-.32-1.51-1-1.53a9.55,9.55,0,0,0-4.31,1.38q-1,.54-4.65,5a.63.63,0,0,1-.56.21,2.47,2.47,0,0,1-1.82-.92,1.78,1.78,0,0,1-.54-1.23q0-1.95,2.86-4.18a14,14,0,0,1,9.17-2.85c4.27.08,6.33,1.8,6.2,5.17l-.83,22.47,0,24.15.07,2.39a5.33,5.33,0,0,1-1.35,3.93,6.12,6.12,0,0,1-1.63,1l-3.37,1.38a1.8,1.8,0,0,1-1.15-.68Q160.28,105,153.33,95ZM179.57,55.3A5.05,5.05,0,0,1,181.8,58a43.69,43.69,0,0,1,1.3,8.54l3.78.4A2.89,2.89,0,0,1,188.75,68q3.5,3.73,3.43,7.52c0,1.56-.76,2.32-2.21,2.3q-3.78-.07-6.58-8.63a64,64,0,0,1-1.17,12.89q-1.8,7.1-4.95,9.48a3.35,3.35,0,0,1-2.08.8,2.28,2.28,0,0,1-1.71-.92,3.73,3.73,0,0,1-.84-2.52q0-.83,4-9.22a36.75,36.75,0,0,0,1.94-6.37A50.71,50.71,0,0,0,180,63C180,61.28,179.88,58.71,179.57,55.3Zm5,43.6c1.41.06,2.54.1,3.39.11,2.89,0,5-.28,6.31-1a2.8,2.8,0,0,0,1.33-2.71c0-.44,0-1.16-.08-2.17-.08-1.85-.07-5.36,0-10.51l.66-31.6,0-2.06a.69.69,0,0,0-.22-.5c-.8-1-2.24-1.49-4.31-1.52a4.59,4.59,0,0,0-4,1.71c-1.52,1.9-2.35,2.91-2.5,3a2.33,2.33,0,0,1-1.4.31,2.68,2.68,0,0,1-2-.92,2.31,2.31,0,0,1-.64-1.63c0-.81.62-1.62,1.82-2.41a14,14,0,0,1,8.22-2.42,10.32,10.32,0,0,1,6.41,2.5,7.06,7.06,0,0,1,2.67,3.61c0,.11,0,2,0,5.62l3,43,.14,1.9-1.11,3c-.58,3.29-1.07,5.19-1.49,5.71a1.72,1.72,0,0,1-1.35.75q-.95,0-6.12-3a30.59,30.59,0,0,1-3.94-4Q187.77,102,184.54,98.9Z"/><path class="cls-1" d="M334,110.79a.56.56,0,0,1-.32-.11,27.12,27.12,0,0,1-4.19-4,21,21,0,0,1-2.89-4.39,11.93,11.93,0,0,1,0-11,20.78,20.78,0,0,1,2.89-4.4,28.32,28.32,0,0,1,4.19-4,.54.54,0,0,1,.64,0,27.25,27.25,0,0,1,4.19,4,20.78,20.78,0,0,1,2.89,4.4,11.93,11.93,0,0,1,0,11,21,21,0,0,1-2.89,4.39,26.14,26.14,0,0,1-4.19,4A.54.54,0,0,1,334,110.79ZM334,84a26.92,26.92,0,0,0-3.69,3.63,19.85,19.85,0,0,0-2.74,4.16,10.82,10.82,0,0,0,0,10,19.65,19.65,0,0,0,2.74,4.17,26.83,26.83,0,0,0,3.68,3.6,26.54,26.54,0,0,0,3.7-3.62,20.19,20.19,0,0,0,2.73-4.16,10.82,10.82,0,0,0,0-10,19.65,19.65,0,0,0-2.74-4.17A27.13,27.13,0,0,0,334,84Z"/><path class="cls-1" d="M325,112.6a13.52,13.52,0,0,1-7-1.71,12.78,12.78,0,0,1-4-3.94,20.82,20.82,0,0,1-2.31-4.73,27,27,0,0,1-1.33-5.66.54.54,0,0,1,.33-.55,26.31,26.31,0,0,1,9.25-1.86,13.55,13.55,0,0,1,7,1.72,12.78,12.78,0,0,1,4,3.94,20.81,20.81,0,0,1,2.3,4.73,26.87,26.87,0,0,1,1.33,5.66.55.55,0,0,1-.33.55A26.66,26.66,0,0,1,325,112.6ZM311.44,96.86a27.59,27.59,0,0,0,1.23,5,20.08,20.08,0,0,0,2.18,4.48,11.86,11.86,0,0,0,3.68,3.6,12.48,12.48,0,0,0,6.45,1.56,25.54,25.54,0,0,0,8.44-1.62,27,27,0,0,0-1.23-5A19.57,19.57,0,0,0,330,100.4a11.62,11.62,0,0,0-3.67-3.6,12.53,12.53,0,0,0-6.45-1.57A25.61,25.61,0,0,0,311.44,96.86Z"/><path class="cls-1" d="M318.41,95.33h0a.55.55,0,0,1-.51-.58A27.22,27.22,0,0,1,319.63,87a.55.55,0,0,1,.55-.33,27.28,27.28,0,0,1,5.67,1.3,20.65,20.65,0,0,1,4.74,2.28,12.67,12.67,0,0,1,4,4,.54.54,0,0,1-.18.74.55.55,0,0,1-.75-.18A11.5,11.5,0,0,0,330,91.11,19.92,19.92,0,0,0,325.5,89a27.53,27.53,0,0,0-5-1.19A26.43,26.43,0,0,0,319,94.82.54.54,0,0,1,318.41,95.33Z"/><path class="cls-1" d="M343.05,112.6h0a26.67,26.67,0,0,1-9.25-1.85.55.55,0,0,1-.33-.55,26.87,26.87,0,0,1,1.33-5.66,20.82,20.82,0,0,1,2.31-4.73,12.68,12.68,0,0,1,4-3.94,13.53,13.53,0,0,1,7-1.72A26.29,26.29,0,0,1,357.38,96a.54.54,0,0,1,.33.55,27,27,0,0,1-1.33,5.66,20.82,20.82,0,0,1-2.31,4.73,12.76,12.76,0,0,1-4,3.94A13.57,13.57,0,0,1,343.05,112.6Zm-8.45-2.7a25.68,25.68,0,0,0,8.45,1.62h0A12.53,12.53,0,0,0,349.5,110a11.83,11.83,0,0,0,3.67-3.6,19.66,19.66,0,0,0,2.18-4.48,26.74,26.74,0,0,0,1.23-5,25.54,25.54,0,0,0-8.44-1.63,12.48,12.48,0,0,0-6.45,1.57,11.64,11.64,0,0,0-3.68,3.6,20,20,0,0,0-2.18,4.47A27.83,27.83,0,0,0,334.6,109.9Z"/><path class="cls-1" d="M349.61,95.32a.55.55,0,0,1-.54-.51,26.23,26.23,0,0,0-1.53-7A26.32,26.32,0,0,0,340,90a12.6,12.6,0,0,0-5.47,4.79.54.54,0,0,1-.93-.56,13.67,13.67,0,0,1,5.93-5.2,26.91,26.91,0,0,1,8.29-2.38.55.55,0,0,1,.55.33,27.1,27.1,0,0,1,1.76,7.78.53.53,0,0,1-.5.57Z"/></g></g></svg>